<?xml version="1.0" standalone="no"?>
<!DOCTYPE svg PUBLIC "-//W3C//DTD SVG 20010904//EN"
 "http://www.w3.org/TR/2001/REC-SVG-20010904/DTD/svg10.dtd">
<svg version="1.0" xmlns="http://www.w3.org/2000/svg"
 width="267.000000pt" height="267.000000pt" viewBox="0 0 267.000000 267.000000"
 preserveAspectRatio="xMidYMid meet">
<metadata>
Created by potrace 1.14, written by Peter Selinger 2001-2017
</metadata>
<g transform="translate(0.000000,267.000000) scale(0.100000,-0.100000)"
fill="#000000" stroke="none">
<path d="M0 1335 l0 -1335 1335 0 1335 0 0 1335 0 1335 -1335 0 -1335 0 0
-1335z m1361 760 c24 -13 54 -29 65 -34 12 -5 43 -37 68 -70 26 -34 51 -61 55
-61 19 0 31 -60 27 -142 -3 -84 -5 -89 -71 -215 -37 -70 -103 -198 -147 -283
-44 -85 -111 -211 -148 -280 -37 -69 -113 -213 -169 -322 -56 -108 -109 -199
-118 -202 -31 -12 -49 5 -131 127 -46 67 -133 194 -193 282 -61 88 -121 174
-132 192 -12 17 -76 110 -142 207 -66 97 -144 211 -173 254 l-53 77 4 120 c3
103 7 126 28 163 31 56 87 122 104 122 7 0 15 7 19 15 3 8 14 15 24 15 10 0
27 8 36 19 14 15 36 19 128 23 102 4 114 3 152 -19 23 -12 50 -27 62 -32 26
-11 124 -135 124 -156 0 -8 4 -15 9 -15 5 0 14 -14 20 -31 12 -34 34 -35 39
-1 2 11 10 26 18 32 8 7 14 19 14 27 0 18 109 133 126 133 6 0 14 7 18 15 3 8
14 15 24 15 10 0 27 9 37 20 14 16 33 20 109 23 50 1 98 4 107 5 9 1 36 -9 60
-23z m1189 -810 l0 -805 -180 0 -180 0 0 155 0 155 -177 2 -178 3 -3 169 c-2
116 1 173 9 182 9 11 49 14 180 14 l169 0 -2 303 -3 302 -57 3 c-52 3 -57 1
-60 -20 -2 -15 -11 -24 -25 -26 -20 -3 -23 -10 -23 -44 0 -31 -4 -41 -20 -45
-16 -4 -20 -14 -20 -44 0 -33 -4 -40 -25 -45 -21 -5 -25 -12 -25 -44 0 -30 -5
-40 -20 -45 -15 -5 -20 -15 -20 -45 0 -32 -4 -39 -22 -42 -20 -3 -23 -9 -23
-43 0 -34 -3 -40 -22 -43 -20 -3 -23 -10 -23 -44 0 -31 -4 -41 -19 -45 -15 -4
-21 -15 -23 -47 -2 -34 -7 -42 -25 -44 -20 -3 -23 -10 -23 -44 0 -31 -4 -41
-19 -45 -15 -4 -21 -15 -23 -47 -2 -34 -7 -42 -25 -44 -20 -3 -23 -10 -23 -44
0 -31 -4 -41 -20 -45 -16 -4 -20 -14 -20 -43 0 -32 -4 -39 -22 -42 -22 -3 -24
-7 -27 -65 -1 -16 -7 -23 -21 -23 -17 0 -20 -7 -20 -41 0 -32 -4 -42 -19 -46
-15 -4 -21 -15 -23 -47 l-3 -41 -180 0 -180 0 -3 48 c-3 41 -1 47 17 47 16 0
20 8 23 43 2 35 7 43 26 45 19 3 22 10 22 44 0 31 4 41 20 45 15 4 20 14 20
38 0 32 15 55 35 52 6 -1 11 17 13 39 2 32 8 43 23 47 15 4 19 14 19 46 0 34
3 41 19 41 16 0 20 8 23 43 2 35 7 43 26 45 19 3 22 9 22 48 0 37 3 44 19 44
16 0 20 8 23 43 2 35 7 43 26 45 19 3 22 10 22 44 0 31 4 41 19 45 14 4 21 15
23 42 2 26 9 39 26 46 17 8 22 18 22 48 0 30 4 40 20 44 15 4 20 14 20 39 0
28 5 36 26 44 21 8 25 15 20 34 -8 33 2 56 25 56 16 0 19 8 19 45 0 38 3 45
19 45 16 0 20 8 23 43 2 35 7 43 26 45 19 3 22 10 22 44 0 31 4 41 20 45 15 4
20 14 20 37 0 18 5 37 12 44 9 9 103 12 360 12 l348 0 0 -805z"/>
<path d="M505 1638 c-94 -9 -173 -39 -219 -82 l-24 -21 67 -98 c77 -114 248
-363 362 -527 44 -63 107 -157 142 -207 34 -51 65 -93 70 -93 4 0 26 39 48 88
23 48 44 89 48 92 3 3 25 43 48 90 24 47 64 123 89 170 26 47 74 139 109 205
100 192 146 279 157 293 8 9 6 12 -6 12 -10 0 -37 11 -61 25 -44 26 -84 36
-235 56 -73 10 -95 9 -150 -5 -35 -9 -69 -24 -73 -32 -10 -18 -55 -12 -72 10
-28 35 -118 43 -300 24z"/>
<path d="M1668 1568 c-2 -15 -11 -24 -25 -26 -20 -3 -23 -10 -23 -44 0 -31 -4
-41 -20 -45 -16 -4 -20 -14 -20 -44 0 -32 -4 -39 -19 -39 -16 0 -20 -8 -23
-42 -2 -36 -7 -44 -25 -46 -20 -3 -23 -10 -23 -44 0 -31 -4 -41 -19 -45 -15
-4 -21 -15 -23 -47 -2 -34 -7 -42 -25 -44 -20 -3 -23 -9 -23 -48 0 -37 -3 -44
-19 -44 -16 0 -20 -8 -23 -42 -2 -36 -7 -44 -25 -46 -20 -3 -23 -10 -23 -44 0
-31 -4 -41 -20 -45 -16 -4 -20 -14 -20 -45 0 -31 -4 -41 -19 -45 -14 -4 -21
-15 -23 -42 -2 -29 -8 -37 -25 -39 -20 -3 -23 -9 -23 -48 0 -37 -3 -44 -20
-44 -11 0 -20 -7 -20 -15 0 -13 21 -15 125 -15 118 0 125 1 125 20 0 13 7 20
19 20 16 0 20 8 23 43 2 35 7 43 26 45 19 3 22 10 22 44 0 31 4 41 20 45 16 4
20 14 20 45 0 31 4 41 19 45 14 4 21 15 23 42 2 26 9 39 26 46 17 8 22 18 22
48 0 30 4 40 19 44 14 4 21 15 23 42 2 29 8 37 26 39 19 3 22 9 22 48 0 37 3
44 19 44 16 0 20 8 23 43 2 35 7 43 26 45 19 3 22 10 22 44 0 31 4 41 20 45
16 4 20 14 20 44 0 33 4 40 25 45 21 5 25 12 25 46 0 31 4 41 20 45 11 3 20
12 20 19 0 11 -25 14 -124 14 -122 0 -125 -1 -128 -22z"/>
<path d="M2240 1345 l0 -245 -175 0 -175 0 0 -125 0 -125 174 0 c166 0 175 -1
181 -20 4 -11 6 -33 5 -48 -1 -15 -2 -75 -1 -134 l1 -108 125 0 125 0 0 525 0
525 -130 0 -130 0 0 -245z"/>
</g>
</svg>
