<?xml version="1.0" encoding="UTF-8" standalone="no"?>
<svg
   width="48"
   height="48"
   viewBox="0 0 48 48"
   fill="none"
   version="1.1"
   id="svg817"
   sodipodi:docname="message.svg"
   inkscape:version="1.1 (c4e8f9ed74, 2021-05-24)"
   xmlns:inkscape="http://www.inkscape.org/namespaces/inkscape"
   xmlns:sodipodi="http://sodipodi.sourceforge.net/DTD/sodipodi-0.dtd"
   xmlns="http://www.w3.org/2000/svg"
   xmlns:svg="http://www.w3.org/2000/svg">
  <defs
     id="defs821" />
  <sodipodi:namedview
     id="namedview819"
     pagecolor="#ffffff"
     bordercolor="#666666"
     borderopacity="1.0"
     inkscape:pageshadow="2"
     inkscape:pageopacity="0.0"
     inkscape:pagecheckerboard="0"
     showgrid="false"
     inkscape:zoom="9.09375"
     inkscape:cx="-18.969072"
     inkscape:cy="13.580756"
     inkscape:window-width="1920"
     inkscape:window-height="1056"
     inkscape:window-x="1920"
     inkscape:window-y="0"
     inkscape:window-maximized="1"
     inkscape:current-layer="svg817" />
  <rect
     x="6"
     y="28"
     width="4"
     height="4"
     fill="black"
     id="rect651" />
  <rect
     x="38"
     y="28"
     width="4"
     height="4"
     fill="black"
     id="rect653" />
  <rect
     x="2"
     y="20"
     width="4"
     height="4"
     fill="black"
     id="rect655" />
  <rect
     x="2"
     y="24"
     width="4"
     height="4"
     fill="black"
     id="rect657" />
  <rect
     x="42"
     y="20"
     width="4"
     height="4"
     fill="black"
     id="rect659" />
  <rect
     x="42"
     y="24"
     width="4"
     height="4"
     fill="black"
     id="rect661" />
  <rect
     x="2"
     y="16"
     width="4"
     height="4"
     fill="black"
     id="rect663" />
  <rect
     x="42"
     y="16"
     width="4"
     height="4"
     fill="black"
     id="rect665" />
  <rect
     x="2"
     y="12"
     width="4"
     height="4"
     fill="black"
     id="rect667" />
  <rect
     x="42"
     y="12"
     width="4"
     height="4"
     fill="black"
     id="rect669" />
  <rect
     x="6"
     y="8"
     width="4"
     height="4"
     fill="black"
     id="rect671" />
  <rect
     x="38"
     y="8"
     width="4"
     height="4"
     fill="black"
     id="rect673" />
  <rect
     x="14"
     y="4"
     width="4"
     height="4"
     fill="yellow"
     id="rect675"
     style="fill:#000000" />
  <rect
     x="10"
     y="4"
     width="4"
     height="4"
     fill="yellow"
     id="rect677"
     style="fill:#000000" />
  <rect
     x="18"
     y="4"
     width="4"
     height="4"
     fill="yellow"
     id="rect679"
     style="fill:#000000" />
  <rect
     x="26"
     y="4"
     width="4"
     height="4"
     fill="black"
     id="rect681" />
  <rect
     x="22"
     y="4"
     width="4"
     height="4"
     fill="black"
     id="rect683" />
  <rect
     x="30"
     y="4"
     width="4"
     height="4"
     fill="black"
     id="rect685" />
  <rect
     x="34"
     y="4"
     width="4"
     height="4"
     fill="black"
     id="rect687" />
  <rect
     x="18"
     y="32"
     width="4"
     height="4"
     fill="black"
     id="rect689" />
  <rect
     x="22"
     y="40"
     width="4"
     height="4"
     fill="black"
     id="rect691" />
  <rect
     x="18"
     y="40"
     width="4"
     height="4"
     fill="black"
     id="rect693" />
  <rect
     x="30"
     y="32"
     width="4"
     height="4"
     fill="black"
     id="rect695" />
  <rect
     x="34"
     y="32"
     width="4"
     height="4"
     fill="black"
     id="rect697" />
  <rect
     x="14"
     y="32"
     width="4"
     height="4"
     fill="black"
     id="rect699" />
  <rect
     x="26"
     y="36"
     width="4"
     height="4"
     fill="black"
     id="rect701" />
  <rect
     x="26"
     y="36"
     width="4"
     height="4"
     fill="#990e4f"
     id="rect783-3" />
  <rect
     x="22"
     y="32"
     width="4"
     height="4"
     fill="black"
     id="rect703" />
  <rect
     x="22"
     y="36"
     width="4"
     height="4"
     fill="black"
     id="rect705" />
  <rect
     x="22"
     y="40"
     width="4"
     height="4"
     fill="#990e4f"
     id="rect783-3-5"
     style="fill:#4f0729;fill-opacity:1" />
  <rect
     x="10"
     y="32"
     width="4"
     height="4"
     fill="black"
     id="rect707" />
  <rect
     x="10"
     y="12"
     width="4"
     height="4"
     fill="#D52D7B"
     id="rect709" />
  <rect
     x="10"
     y="16"
     width="4"
     height="4"
     fill="#D52D7B"
     id="rect711" />
  <rect
     x="10"
     y="20"
     width="4"
     height="4"
     fill="#D52D7B"
     id="rect713" />
  <rect
     x="10"
     y="24"
     width="4"
     height="4"
     fill="#D52D7B"
     id="rect715" />
  <rect
     x="14"
     y="12"
     width="4"
     height="4"
     fill="#D52D7B"
     id="rect717" />
  <rect
     x="14"
     y="16"
     width="4"
     height="4"
     fill="#D52D7B"
     id="rect719" />
  <rect
     x="14"
     y="20"
     width="4"
     height="4"
     fill="#D52D7B"
     id="rect721" />
  <rect
     x="14"
     y="24"
     width="4"
     height="4"
     fill="#D52D7B"
     id="rect723" />
  <rect
     x="14"
     y="28"
     width="4"
     height="4"
     fill="#D52D7B"
     id="rect725" />
  <rect
     x="18"
     y="8"
     width="4"
     height="4"
     fill="#D52D7B"
     id="rect727" />
  <rect
     x="18"
     y="12"
     width="4"
     height="4"
     fill="#D52D7B"
     id="rect729" />
  <rect
     x="18"
     y="16"
     width="4"
     height="4"
     fill="#D52D7B"
     id="rect731" />
  <rect
     x="18"
     y="20"
     width="4"
     height="4"
     fill="#D52D7B"
     id="rect733" />
  <rect
     x="18"
     y="24"
     width="4"
     height="4"
     fill="#D52D7B"
     id="rect735" />
  <rect
     x="18"
     y="28"
     width="4"
     height="4"
     fill="#D52D7B"
     id="rect737" />
  <rect
     x="22"
     y="8"
     width="4"
     height="4"
     fill="#D52D7B"
     id="rect739" />
  <rect
     x="22"
     y="12"
     width="4"
     height="4"
     fill="#D52D7B"
     id="rect741" />
  <rect
     x="22"
     y="16"
     width="4"
     height="4"
     fill="#D52D7B"
     id="rect743" />
  <rect
     x="22"
     y="20"
     width="4"
     height="4"
     fill="#D52D7B"
     id="rect745" />
  <rect
     x="22"
     y="24"
     width="4"
     height="4"
     fill="#D52D7B"
     id="rect747" />
  <rect
     x="22"
     y="28"
     width="4"
     height="4"
     fill="#D52D7B"
     id="rect749" />
  <rect
     x="26"
     y="12"
     width="4"
     height="4"
     fill="#D52D7B"
     id="rect751" />
  <rect
     x="26"
     y="16"
     width="4"
     height="4"
     fill="#D52D7B"
     id="rect753" />
  <rect
     x="26"
     y="20"
     width="4"
     height="4"
     fill="#D52D7B"
     id="rect755" />
  <rect
     x="26"
     y="24"
     width="4"
     height="4"
     fill="#D52D7B"
     id="rect757" />
  <rect
     x="26"
     y="28"
     width="4"
     height="4"
     fill="#D52D7B"
     id="rect759" />
  <rect
     x="30"
     y="12"
     width="4"
     height="4"
     fill="#D52D7B"
     id="rect761" />
  <rect
     x="30"
     y="16"
     width="4"
     height="4"
     fill="#D52D7B"
     id="rect763" />
  <rect
     x="30"
     y="20"
     width="4"
     height="4"
     fill="#D52D7B"
     id="rect765" />
  <rect
     x="30"
     y="24"
     width="4"
     height="4"
     fill="#D52D7B"
     id="rect767" />
  <rect
     x="34"
     y="16"
     width="4"
     height="4"
     fill="#D52D7B"
     id="rect769" />
  <rect
     x="34"
     y="20"
     width="4"
     height="4"
     fill="#D52D7B"
     id="rect771" />
  <rect
     x="34"
     y="24"
     width="4"
     height="4"
     fill="#D52D7B"
     id="rect773" />
  <rect
     x="14"
     y="18"
     width="4"
     height="4"
     fill="white"
     id="rect775" />
  <rect
     x="22"
     y="18"
     width="4"
     height="4"
     fill="white"
     id="rect777" />
  <rect
     x="30"
     y="18"
     width="4"
     height="4"
     fill="white"
     id="rect779" />
  <rect
     x="26"
     y="8"
     width="4"
     height="4"
     fill="#990E4F"
     id="rect781" />
  <rect
     x="26"
     y="32"
     width="4"
     height="4"
     fill="#990E4F"
     id="rect783" />
  <rect
     x="26"
     y="32"
     width="4"
     height="4"
     fill="#d52d7b"
     id="rect759-7" />
  <rect
     x="30"
     y="8"
     width="4"
     height="4"
     fill="#990E4F"
     id="rect785" />
  <rect
     x="30"
     y="28"
     width="4"
     height="4"
     fill="#990E4F"
     id="rect787" />
  <rect
     x="34"
     y="8"
     width="4"
     height="4"
     fill="#990E4F"
     id="rect789" />
  <rect
     x="38"
     y="12"
     width="4"
     height="4"
     fill="#990E4F"
     id="rect791" />
  <rect
     x="34"
     y="12"
     width="4"
     height="4"
     fill="#990E4F"
     id="rect793" />
  <rect
     x="38"
     y="16"
     width="4"
     height="4"
     fill="#990E4F"
     id="rect795" />
  <rect
     x="38"
     y="20"
     width="4"
     height="4"
     fill="#990E4F"
     id="rect797" />
  <rect
     x="38"
     y="24"
     width="4"
     height="4"
     fill="#990E4F"
     id="rect799" />
  <rect
     x="34"
     y="28"
     width="4"
     height="4"
     fill="#990E4F"
     id="rect801" />
  <rect
     x="10"
     y="8"
     width="4"
     height="4"
     fill="#FF8CC1"
     id="rect803" />
  <rect
     x="6"
     y="12"
     width="4"
     height="4"
     fill="#FF8CC1"
     id="rect805" />
  <rect
     x="6"
     y="16"
     width="4"
     height="4"
     fill="#FF8CC1"
     id="rect807" />
  <rect
     x="6"
     y="20"
     width="4"
     height="4"
     fill="#FF8CC1"
     id="rect809" />
  <rect
     x="6"
     y="24"
     width="4"
     height="4"
     fill="#FF8CC1"
     id="rect811" />
  <rect
     x="10"
     y="28"
     width="4"
     height="4"
     fill="#FF8CC1"
     id="rect813" />
  <rect
     x="14"
     y="8"
     width="4"
     height="4"
     fill="#FF8CC1"
     id="rect815" />
</svg>
