<svg width="60" height="60" viewBox="0 0 60 60" fill="none" xmlns="http://www.w3.org/2000/svg">
<rect x="16" y="6" width="4" height="4" fill="#25B333"/>
<rect x="20" y="10" width="4" height="4" fill="#25B333"/>
<rect x="20" y="6" width="4" height="4" fill="#25B333"/>
<rect x="44" y="6" width="4" height="4" fill="#25B333"/>
<rect x="24" y="14" width="4" height="4" fill="#25B333"/>
<rect x="24" y="10" width="4" height="4" fill="#25B333"/>
<rect x="28" y="46" width="4" height="4" fill="#25B333"/>
<rect x="32" y="42" width="4" height="4" fill="#25B333"/>
<rect x="40" y="34" width="4" height="4" fill="#25B333"/>
<rect x="36" y="38" width="4" height="4" fill="#25B333"/>
<rect x="48" y="10" width="4" height="4" fill="#25B333"/>
<rect x="48" y="6" width="4" height="4" fill="#25B333"/>
<rect x="48" y="26" width="4" height="4" fill="#25B333"/>
<rect x="52" y="26" width="4" height="4" fill="#25B333"/>
<rect x="48" y="30" width="4" height="4" fill="#25B333"/>
<rect x="36" y="42" width="4" height="4" fill="#25B333"/>
<rect x="32" y="46" width="4" height="4" fill="#25B333"/>
<rect x="28" y="50" width="4" height="4" fill="#25B333"/>
<rect x="40" y="38" width="4" height="4" fill="#25B333"/>
<rect x="44" y="34" width="4" height="4" fill="#25B333"/>
<rect x="52" y="22" width="4" height="4" fill="#25B333"/>
<rect x="52" y="18" width="4" height="4" fill="#25B333"/>
<rect x="52" y="14" width="4" height="4" fill="#25B333"/>
<rect x="52" y="10" width="4" height="4" fill="#25B333"/>
<rect x="44" y="30" width="4" height="4" fill="#25B333"/>
<rect x="16" y="22" width="4" height="4" fill="#3FDD4E"/>
<rect x="16" y="18" width="4" height="4" fill="#3FDD4E"/>
<rect x="16" y="14" width="4" height="4" fill="#3FDD4E"/>
<rect x="16" y="10" width="4" height="4" fill="#3FDD4E"/>
<rect x="20" y="22" width="4" height="4" fill="#3FDD4E"/>
<rect x="20" y="18" width="4" height="4" fill="#3FDD4E"/>
<rect x="20" y="14" width="4" height="4" fill="#3FDD4E"/>
<rect x="8" y="22" width="4" height="4" fill="#3FDD4E"/>
<rect x="8" y="18" width="4" height="4" fill="#3FDD4E"/>
<rect x="8" y="14" width="4" height="4" fill="#3FDD4E"/>
<rect x="12" y="26" width="4" height="4" fill="#3FDD4E"/>
<rect x="16" y="30" width="4" height="4" fill="#3FDD4E"/>
<rect x="16" y="26" width="4" height="4" fill="#3FDD4E"/>
<rect x="20" y="30" width="4" height="4" fill="#3FDD4E"/>
<rect x="20" y="26" width="4" height="4" fill="#3FDD4E"/>
<rect x="20" y="34" width="4" height="4" fill="#3FDD4E"/>
<rect x="24" y="38" width="4" height="4" fill="#3FDD4E"/>
<rect x="24" y="30" width="4" height="4" fill="#3FDD4E"/>
<rect x="24" y="26" width="4" height="4" fill="#3FDD4E"/>
<rect x="24" y="22" width="4" height="4" fill="#3FDD4E"/>
<rect x="24" y="18" width="4" height="4" fill="#3FDD4E"/>
<rect x="12" y="22" width="4" height="4" fill="#3FDD4E"/>
<rect x="12" y="18" width="4" height="4" fill="#3FDD4E"/>
<rect x="12" y="14" width="4" height="4" fill="#3FDD4E"/>
<rect x="12" y="10" width="4" height="4" fill="#3FDD4E"/>
<rect x="24" y="34" width="4" height="4" fill="#3FDD4E"/>
<rect x="28" y="38" width="4" height="4" fill="#3FDD4E"/>
<rect x="28" y="42" width="4" height="4" fill="#3FDD4E"/>
<rect x="28" y="30" width="4" height="4" fill="#3FDD4E"/>
<rect x="28" y="26" width="4" height="4" fill="#3FDD4E"/>
<rect x="28" y="34" width="4" height="4" fill="#3FDD4E"/>
<rect x="32" y="38" width="4" height="4" fill="#3FDD4E"/>
<rect x="32" y="34" width="4" height="4" fill="#3FDD4E"/>
<rect x="36" y="34" width="4" height="4" fill="#3FDD4E"/>
<rect x="32" y="30" width="4" height="4" fill="#3FDD4E"/>
<rect x="32" y="26" width="4" height="4" fill="#3FDD4E"/>
<rect x="36" y="30" width="4" height="4" fill="#3FDD4E"/>
<rect x="36" y="26" width="4" height="4" fill="#3FDD4E"/>
<rect x="40" y="30" width="4" height="4" fill="#3FDD4E"/>
<rect x="32" y="22" width="4" height="4" fill="#3FDD4E"/>
<rect x="32" y="18" width="4" height="4" fill="#3FDD4E"/>
<rect x="28" y="22" width="4" height="4" fill="#3FDD4E"/>
<rect x="44" y="22" width="4" height="4" fill="#3FDD4E"/>
<rect x="44" y="18" width="4" height="4" fill="#3FDD4E"/>
<rect x="44" y="14" width="4" height="4" fill="#3FDD4E"/>
<rect x="44" y="10" width="4" height="4" fill="#3FDD4E"/>
<rect x="36" y="22" width="4" height="4" fill="#3FDD4E"/>
<rect x="36" y="18" width="4" height="4" fill="#3FDD4E"/>
<rect x="36" y="14" width="4" height="4" fill="#3FDD4E"/>
<rect x="48" y="22" width="4" height="4" fill="#3FDD4E"/>
<rect x="48" y="18" width="4" height="4" fill="#3FDD4E"/>
<rect x="48" y="14" width="4" height="4" fill="#3FDD4E"/>
<rect x="40" y="26" width="4" height="4" fill="#3FDD4E"/>
<rect x="40" y="22" width="4" height="4" fill="#3FDD4E"/>
<rect x="40" y="18" width="4" height="4" fill="#3FDD4E"/>
<rect x="40" y="14" width="4" height="4" fill="#3FDD4E"/>
<rect x="40" y="10" width="4" height="4" fill="#3FDD4E"/>
<rect x="44" y="26" width="4" height="4" fill="#3FDD4E"/>
<rect x="40" y="6" width="4" height="4" fill="#8BED94"/>
<rect x="4" y="22" width="4" height="4" fill="#8BED94"/>
<rect x="4" y="18" width="4" height="4" fill="#8BED94"/>
<rect x="4" y="14" width="4" height="4" fill="#8BED94"/>
<rect x="4" y="10" width="4" height="4" fill="#8BED94"/>
<rect x="8" y="10" width="4" height="4" fill="#8BED94"/>
<rect x="8" y="6" width="4" height="4" fill="#8BED94"/>
<rect x="12" y="30" width="4" height="4" fill="#8BED94"/>
<rect x="8" y="30" width="4" height="4" fill="#8BED94"/>
<rect x="8" y="26" width="4" height="4" fill="#8BED94"/>
<rect x="4" y="26" width="4" height="4" fill="#8BED94"/>
<rect x="12" y="34" width="4" height="4" fill="#8BED94"/>
<rect x="16" y="38" width="4" height="4" fill="#8BED94"/>
<rect x="20" y="42" width="4" height="4" fill="#8BED94"/>
<rect x="16" y="34" width="4" height="4" fill="#8BED94"/>
<rect x="20" y="38" width="4" height="4" fill="#8BED94"/>
<rect x="24" y="42" width="4" height="4" fill="#8BED94"/>
<rect x="24" y="46" width="4" height="4" fill="#8BED94"/>
<rect x="12" y="6" width="4" height="4" fill="#8BED94"/>
<rect x="36" y="6" width="4" height="4" fill="#8BED94"/>
<rect x="32" y="14" width="4" height="4" fill="#8BED94"/>
<rect x="32" y="10" width="4" height="4" fill="#8BED94"/>
<rect x="28" y="18" width="4" height="4" fill="#8BED94"/>
<rect x="28" y="14" width="4" height="4" fill="#8BED94"/>
<rect x="36" y="10" width="4" height="4" fill="#8BED94"/>
<rect x="28" y="54" width="4" height="4" fill="black"/>
<rect x="24" y="50" width="4" height="4" fill="black"/>
<rect x="32" y="50" width="4" height="4" fill="black"/>
<rect x="36" y="46" width="4" height="4" fill="black"/>
<rect x="40" y="42" width="4" height="4" fill="black"/>
<rect x="44" y="38" width="4" height="4" fill="black"/>
<rect x="48" y="34" width="4" height="4" fill="black"/>
<rect x="36" y="2" width="4" height="4" fill="black"/>
<rect x="28" y="10" width="4" height="4" fill="black"/>
<rect x="32" y="6" width="4" height="4" fill="black"/>
<rect x="24" y="6" width="4" height="4" fill="black"/>
<rect x="20" y="2" width="4" height="4" fill="black"/>
<rect x="16" y="2" width="4" height="4" fill="black"/>
<rect x="12" y="2" width="4" height="4" fill="black"/>
<rect x="8" y="2" width="4" height="4" fill="black"/>
<rect x="4" y="6" width="4" height="4" fill="black"/>
<rect y="10" width="4" height="4" fill="black"/>
<rect x="52" y="6" width="4" height="4" fill="black"/>
<rect x="56" y="10" width="4" height="4" fill="black"/>
<rect x="40" y="2" width="4" height="4" fill="black"/>
<rect x="44" y="2" width="4" height="4" fill="black"/>
<rect x="48" y="2" width="4" height="4" fill="black"/>
<rect y="18" width="4" height="4" fill="black"/>
<rect x="56" y="18" width="4" height="4" fill="black"/>
<rect y="14" width="4" height="4" fill="black"/>
<rect x="56" y="14" width="4" height="4" fill="black"/>
<rect y="26" width="4" height="4" fill="black"/>
<rect x="56" y="26" width="4" height="4" fill="black"/>
<rect y="22" width="4" height="4" fill="black"/>
<rect x="56" y="22" width="4" height="4" fill="black"/>
<rect x="4" y="30" width="4" height="4" fill="black"/>
<rect x="52" y="30" width="4" height="4" fill="black"/>
<rect x="8" y="34" width="4" height="4" fill="black"/>
<rect x="12" y="38" width="4" height="4" fill="black"/>
<rect x="16" y="42" width="4" height="4" fill="black"/>
<rect x="20" y="46" width="4" height="4" fill="black"/>
</svg>
