<svg width="60" height="60" viewBox="0 0 60 60" fill="none" xmlns="http://www.w3.org/2000/svg">
<rect width="4" height="4" transform="matrix(1 0 0 -1 0 22)" fill="#FF8CC1"/>
<rect width="4" height="4" transform="matrix(1 0 0 -1 0 26)" fill="#FF8CC1"/>
<rect width="4" height="4" transform="matrix(1 0 0 -1 0 30)" fill="#FF8CC1"/>
<rect width="4" height="4" transform="matrix(1 0 0 -1 0 34)" fill="#FF8CC1"/>
<rect width="4" height="4" transform="matrix(1 0 0 -1 0 38)" fill="#FF8CC1"/>
<rect width="4" height="4" transform="matrix(1 0 0 -1 0 42)" fill="#FF8CC1"/>
<rect width="4" height="4" transform="matrix(1 0 0 -1 0 46)" fill="#FF8CC1"/>
<rect width="4" height="4" transform="matrix(1 0 0 -1 0 50)" fill="#FF8CC1"/>
<rect width="4" height="4" transform="matrix(1 0 0 -1 0 54)" fill="#FF8CC1"/>
<rect width="4" height="4" transform="matrix(1 0 0 -1 4 18)" fill="#FF8CC1"/>
<rect width="4" height="4" transform="matrix(1 0 0 -1 8 18)" fill="#FF8CC1"/>
<rect width="4" height="4" transform="matrix(1 0 0 -1 12 18)" fill="#FF8CC1"/>
<rect width="4" height="4" transform="matrix(1 0 0 -1 16 18)" fill="#FF8CC1"/>
<rect width="4" height="4" transform="matrix(1 0 0 -1 20 18)" fill="#FF8CC1"/>
<rect width="4" height="4" transform="matrix(1 0 0 -1 24 18)" fill="#FF8CC1"/>
<rect width="4" height="4" transform="matrix(1 0 0 -1 20 22)" fill="#990E4F"/>
<rect width="4" height="4" transform="matrix(1 0 0 -1 16 22)" fill="#990E4F"/>
<rect width="4" height="4" transform="matrix(1 0 0 -1 12 22)" fill="#990E4F"/>
<rect width="4" height="4" transform="matrix(1 0 0 -1 8 22)" fill="#990E4F"/>
<rect width="4" height="4" transform="matrix(1 0 0 -1 4 22)" fill="#FF8CC1"/>
<rect width="4" height="4" transform="matrix(1 0 0 -1 4 26)" fill="#D52D7B"/>
<rect width="4" height="4" transform="matrix(1 0 0 -1 4 30)" fill="#D52D7B"/>
<rect width="4" height="4" transform="matrix(1 0 0 -1 4 34)" fill="#D52D7B"/>
<rect width="4" height="4" transform="matrix(1 0 0 -1 4 38)" fill="#D52D7B"/>
<rect width="4" height="4" transform="matrix(1 0 0 -1 4 42)" fill="#D52D7B"/>
<rect width="4" height="4" transform="matrix(1 0 0 -1 4 46)" fill="#D52D7B"/>
<rect width="4" height="4" transform="matrix(1 0 0 -1 4 50)" fill="#D52D7B"/>
<rect width="4" height="4" transform="matrix(1 0 0 -1 4 54)" fill="#D52D7B"/>
<rect width="4" height="4" transform="matrix(1 0 0 -1 8 54)" fill="#D52D7B"/>
<rect width="4" height="4" transform="matrix(1 0 0 -1 12 54)" fill="#D52D7B"/>
<rect width="4" height="4" transform="matrix(1 0 0 -1 16 54)" fill="#D52D7B"/>
<rect width="4" height="4" transform="matrix(1 0 0 -1 20 54)" fill="#D52D7B"/>
<rect width="4" height="4" transform="matrix(1 0 0 -1 24 54)" fill="#D52D7B"/>
<rect width="4" height="4" transform="matrix(1 0 0 -1 20 42)" fill="black"/>
<rect width="4" height="4" transform="matrix(1 0 0 -1 20 38)" fill="#FF8CC1"/>
<rect width="4" height="4" transform="matrix(1 0 0 -1 24 42)" fill="#990E4F"/>
<rect width="4" height="4" transform="matrix(1 0 0 -1 24 30)" fill="#FF8CC1"/>
<rect width="4" height="4" transform="matrix(1 0 0 -1 24 34)" fill="#D52D7B"/>
<rect width="4" height="4" transform="matrix(1 0 0 -1 28 38)" fill="#D52D7B"/>
<rect width="4" height="4" transform="matrix(1 0 0 -1 28 26)" fill="#FF8CC1"/>
<rect width="4" height="4" transform="matrix(1 0 0 -1 32 22)" fill="#FF8CC1"/>
<rect width="4" height="4" transform="matrix(1 0 0 -1 36 18)" fill="#FF8CC1"/>
<rect width="4" height="4" transform="matrix(1 0 0 -1 40 14)" fill="#FF8CC1"/>
<rect width="4" height="4" transform="matrix(1 0 0 -1 44 10)" fill="black"/>
<rect width="4" height="4" transform="matrix(1 0 0 -1 48 6)" fill="#FF8CC1"/>
<rect width="4" height="4" transform="matrix(1 0 0 -1 48 10)" fill="#D52D7B"/>
<rect width="4" height="4" transform="matrix(1 0 0 -1 52 6)" fill="#D52D7B"/>
<rect width="4" height="4" transform="matrix(1 0 0 -1 28 34)" fill="#D52D7B"/>
<rect width="4" height="4" transform="matrix(1 0 0 -1 32 30)" fill="#D52D7B"/>
<rect width="4" height="4" transform="matrix(1 0 0 -1 36 26)" fill="#D52D7B"/>
<rect width="4" height="4" transform="matrix(1 0 0 -1 40 22)" fill="#D52D7B"/>
<rect width="4" height="4" transform="matrix(1 0 0 -1 44 18)" fill="#D52D7B"/>
<rect width="4" height="4" transform="matrix(1 0 0 -1 48 14)" fill="black"/>
<rect width="4" height="4" transform="matrix(1 0 0 -1 52 10)" fill="#D52D7B"/>
<rect width="4" height="4" transform="matrix(1 0 0 -1 52 14)" fill="#D52D7B"/>
<rect width="4" height="4" transform="matrix(1 0 0 -1 56 10)" fill="#D52D7B"/>
<rect width="4" height="4" transform="matrix(1 0 0 -1 32 38)" fill="#990E4F"/>
<rect width="4" height="4" transform="matrix(1 0 0 -1 36 34)" fill="#990E4F"/>
<rect width="4" height="4" transform="matrix(1 0 0 -1 40 30)" fill="#990E4F"/>
<rect width="4" height="4" transform="matrix(1 0 0 -1 44 26)" fill="#990E4F"/>
<rect width="4" height="4" transform="matrix(1 0 0 -1 48 22)" fill="#990E4F"/>
<rect width="4" height="4" transform="matrix(1 0 0 -1 52 18)" fill="black"/>
<rect width="4" height="4" transform="matrix(1 0 0 -1 56 14)" fill="#990E4F"/>
<rect width="4" height="4" transform="matrix(1 0 0 -1 32 34)" fill="#D52D7B"/>
<rect width="4" height="4" transform="matrix(1 0 0 -1 36 30)" fill="#D52D7B"/>
<rect width="4" height="4" transform="matrix(1 0 0 -1 40 26)" fill="#D52D7B"/>
<rect width="4" height="4" transform="matrix(1 0 0 -1 44 22)" fill="#D52D7B"/>
<rect width="4" height="4" transform="matrix(1 0 0 -1 28 30)" fill="#D52D7B"/>
<rect width="4" height="4" transform="matrix(1 0 0 -1 32 26)" fill="#D52D7B"/>
<rect width="4" height="4" transform="matrix(1 0 0 -1 36 22)" fill="#D52D7B"/>
<rect width="4" height="4" transform="matrix(1 0 0 -1 40 18)" fill="#D52D7B"/>
<rect width="4" height="4" transform="matrix(1 0 0 -1 28 54)" fill="#D52D7B"/>
<rect width="4" height="4" transform="matrix(1 0 0 -1 32 54)" fill="#D52D7B"/>
<rect width="4" height="4" transform="matrix(1 0 0 -1 36 50)" fill="#D52D7B"/>
<rect width="4" height="4" transform="matrix(1 0 0 -1 36 46)" fill="#D52D7B"/>
<rect width="4" height="4" transform="matrix(1 0 0 -1 36 54)" fill="#990E4F"/>
<rect width="4" height="4" transform="matrix(1 0 0 -1 40 54)" fill="#990E4F"/>
<rect width="4" height="4" transform="matrix(1 0 0 -1 40 50)" fill="#990E4F"/>
<rect width="4" height="4" transform="matrix(1 0 0 -1 40 46)" fill="#990E4F"/>
<rect width="4" height="4" transform="matrix(1 0 0 -1 40 42)" fill="#990E4F"/>
<rect width="4" height="4" transform="matrix(1 0 0 -1 4 58)" fill="#990E4F"/>
<rect width="4" height="4" transform="matrix(1 0 0 -1 8 58)" fill="#990E4F"/>
<rect width="4" height="4" transform="matrix(1 0 0 -1 12 58)" fill="#990E4F"/>
<rect width="4" height="4" transform="matrix(1 0 0 -1 16 58)" fill="#990E4F"/>
<rect width="4" height="4" transform="matrix(1 0 0 -1 20 58)" fill="#990E4F"/>
<rect width="4" height="4" transform="matrix(1 0 0 -1 24 58)" fill="#990E4F"/>
<rect width="4" height="4" transform="matrix(1 0 0 -1 28 58)" fill="#990E4F"/>
<rect width="4" height="4" transform="matrix(1 0 0 -1 32 58)" fill="#990E4F"/>
<rect width="4" height="4" transform="matrix(1 0 0 -1 36 58)" fill="#990E4F"/>
</svg>
