<svg width="48" height="48" viewBox="0 0 48 48" fill="none" xmlns="http://www.w3.org/2000/svg">
<rect x="2" y="22" width="4" height="4" fill="black"/>
<rect x="42" y="22" width="4" height="4" fill="black"/>
<rect x="2" y="18" width="4" height="4" fill="black"/>
<rect x="42" y="18" width="4" height="4" fill="black"/>
<rect x="6" y="14" width="4" height="4" fill="black"/>
<rect x="38" y="14" width="4" height="4" fill="black"/>
<rect x="6" y="10" width="4" height="4" fill="black"/>
<rect x="38" y="10" width="4" height="4" fill="black"/>
<rect x="14" y="6" width="4" height="4" fill="black"/>
<rect x="10" y="6" width="4" height="4" fill="black"/>
<rect x="18" y="2" width="4" height="4" fill="black"/>
<rect x="26" y="2" width="4" height="4" fill="black"/>
<rect x="22" y="2" width="4" height="4" fill="black"/>
<rect x="30" y="6" width="4" height="4" fill="black"/>
<rect x="34" y="6" width="4" height="4" fill="black"/>
<rect x="46" y="30" width="4" height="4" transform="rotate(-180 46 30)" fill="black"/>
<rect x="6" y="30" width="4" height="4" transform="rotate(-180 6 30)" fill="black"/>
<rect x="42" y="34" width="4" height="4" transform="rotate(-180 42 34)" fill="black"/>
<rect x="10" y="34" width="4" height="4" transform="rotate(-180 10 34)" fill="black"/>
<rect x="42" y="38" width="4" height="4" transform="rotate(-180 42 38)" fill="black"/>
<rect x="10" y="38" width="4" height="4" transform="rotate(-180 10 38)" fill="black"/>
<rect x="34" y="42" width="4" height="4" transform="rotate(-180 34 42)" fill="black"/>
<rect x="38" y="42" width="4" height="4" transform="rotate(-180 38 42)" fill="black"/>
<rect x="30" y="46" width="4" height="4" transform="rotate(-180 30 46)" fill="black"/>
<rect x="22" y="46" width="4" height="4" transform="rotate(-180 22 46)" fill="black"/>
<rect x="26" y="46" width="4" height="4" transform="rotate(-180 26 46)" fill="black"/>
<rect x="18" y="42" width="4" height="4" transform="rotate(-180 18 42)" fill="black"/>
<rect x="14" y="42" width="4" height="4" transform="rotate(-180 14 42)" fill="black"/>
<rect x="18" y="6" width="4" height="4" fill="#FF8CC1"/>
<rect x="18" y="10" width="4" height="4" fill="#D52D7B"/>
<rect x="18" y="14" width="4" height="4" fill="#D52D7B"/>
<rect x="18" y="18" width="4" height="4" fill="#D52D7B"/>
<rect x="18" y="22" width="4" height="4" fill="#D52D7B"/>
<rect x="18" y="26" width="4" height="4" fill="white"/>
<rect x="18" y="30" width="4" height="4" fill="white"/>
<rect x="18" y="34" width="4" height="4" fill="#D52D7B"/>
<rect x="18" y="38" width="4" height="4" fill="#D52D7B"/>
<rect x="22" y="6" width="4" height="4" fill="#990E4F"/>
<rect x="22" y="10" width="4" height="4" fill="#D52D7B"/>
<rect x="22" y="14" width="4" height="4" fill="#D52D7B"/>
<rect x="22" y="18" width="4" height="4" fill="#D52D7B"/>
<rect x="22" y="22" width="4" height="4" fill="#D52D7B"/>
<rect x="22" y="26" width="4" height="4" fill="white"/>
<rect x="22" y="30" width="4" height="4" fill="white"/>
<rect x="22" y="34" width="4" height="4" fill="#D52D7B"/>
<rect x="22" y="38" width="4" height="4" fill="#990E4F"/>
<rect x="26" y="6" width="4" height="4" fill="#990E4F"/>
<rect x="26" y="10" width="4" height="4" fill="#D52D7B"/>
<rect x="30" y="10" width="4" height="4" fill="#990E4F"/>
<rect x="34" y="10" width="4" height="4" fill="#990E4F"/>
<rect x="14" y="10" width="4" height="4" fill="#D52D7B"/>
<rect x="10" y="10" width="4" height="4" fill="#FF8CC1"/>
<rect x="26" y="14" width="4" height="4" fill="#D52D7B"/>
<rect x="30" y="14" width="4" height="4" fill="#D52D7B"/>
<rect x="34" y="14" width="4" height="4" fill="#990E4F"/>
<rect x="14" y="14" width="4" height="4" fill="#D52D7B"/>
<rect x="10" y="14" width="4" height="4" fill="#FF8CC1"/>
<rect x="26" y="18" width="4" height="4" fill="#D52D7B"/>
<rect x="30" y="18" width="4" height="4" fill="white"/>
<rect x="34" y="18" width="4" height="4" fill="#D52D7B"/>
<rect x="38" y="18" width="4" height="4" fill="#990E4F"/>
<rect x="14" y="18" width="4" height="4" fill="white"/>
<rect x="10" y="18" width="4" height="4" fill="#D52D7B"/>
<rect x="6" y="18" width="4" height="4" fill="#FF8CC1"/>
<rect x="26" y="22" width="4" height="4" fill="#D52D7B"/>
<rect x="30" y="22" width="4" height="4" fill="#D52D7B"/>
<rect x="34" y="22" width="4" height="4" fill="#D52D7B"/>
<rect x="38" y="22" width="4" height="4" fill="#990E4F"/>
<rect x="14" y="22" width="4" height="4" fill="#D52D7B"/>
<rect x="10" y="22" width="4" height="4" fill="#D52D7B"/>
<rect x="6" y="22" width="4" height="4" fill="#FF8CC1"/>
<rect x="26" y="26" width="4" height="4" fill="white"/>
<rect x="30" y="26" width="4" height="4" fill="white"/>
<rect x="34" y="26" width="4" height="4" fill="#D52D7B"/>
<rect x="38" y="26" width="4" height="4" fill="#990E4F"/>
<rect x="14" y="26" width="4" height="4" fill="white"/>
<rect x="10" y="26" width="4" height="4" fill="#D52D7B"/>
<rect x="6" y="26" width="4" height="4" fill="#FF8CC1"/>
<rect x="26" y="30" width="4" height="4" fill="white"/>
<rect x="30" y="30" width="4" height="4" fill="#D52D7B"/>
<rect x="34" y="30" width="4" height="4" fill="#990E4F"/>
<rect x="14" y="30" width="4" height="4" fill="#D52D7B"/>
<rect x="10" y="30" width="4" height="4" fill="#FF8CC1"/>
<rect x="26" y="34" width="4" height="4" fill="#D52D7B"/>
<rect x="30" y="34" width="4" height="4" fill="#990E4F"/>
<rect x="34" y="34" width="4" height="4" fill="#990E4F"/>
<rect x="14" y="34" width="4" height="4" fill="#D52D7B"/>
<rect x="10" y="34" width="4" height="4" fill="#FF8CC1"/>
<rect x="26" y="38" width="4" height="4" fill="#990E4F"/>
</svg>
