<svg width="48" height="48" viewBox="0 0 48 48" fill="none" xmlns="http://www.w3.org/2000/svg">
<rect x="10" y="9" width="4" height="4" fill="#FF8CC2"/>
<rect x="14" y="9" width="4" height="4" fill="#FF8CC2"/>
<rect x="6" y="13" width="4" height="4" fill="#FF8CC2"/>
<rect x="6" y="17" width="4" height="4" fill="#FF8CC2"/>
<rect x="6" y="21" width="4" height="4" fill="#FF8CC2"/>
<rect x="10" y="25" width="4" height="4" fill="#FF8CC2"/>
<rect x="14" y="29" width="4" height="4" fill="#FF8CC2"/>
<rect x="10" y="17" width="4" height="4" fill="#D52D7B"/>
<rect x="10" y="13" width="4" height="4" fill="#D52D7B"/>
<rect x="10" y="21" width="4" height="4" fill="#D52D7B"/>
<rect x="14" y="25" width="4" height="4" fill="#D52D7B"/>
<rect x="14" y="17" width="4" height="4" fill="#D52D7B"/>
<rect x="14" y="13" width="4" height="4" fill="#D52D7B"/>
<rect x="14" y="21" width="4" height="4" fill="#D52D7B"/>
<rect x="18" y="25" width="4" height="4" fill="#D52D7B"/>
<rect x="18" y="29" width="4" height="4" fill="#D52D7B"/>
<rect x="18" y="33" width="4" height="4" fill="#D52D7B"/>
<rect x="18" y="17" width="4" height="4" fill="#D52D7B"/>
<rect x="18" y="13" width="4" height="4" fill="#D52D7B"/>
<rect x="18" y="9" width="4" height="4" fill="#D52D7B"/>
<rect x="18" y="21" width="4" height="4" fill="#D52D7B"/>
<rect x="22" y="25" width="4" height="4" fill="#D52D7B"/>
<rect x="22" y="29" width="4" height="4" fill="#D52D7B"/>
<rect x="22" y="33" width="4" height="4" fill="#D52D7B"/>
<rect x="22" y="17" width="4" height="4" fill="#D52D7B"/>
<rect x="22" y="13" width="4" height="4" fill="#D52D7B"/>
<rect x="22" y="21" width="4" height="4" fill="#D52D7B"/>
<rect x="26" y="25" width="4" height="4" fill="#D52D7B"/>
<rect x="26" y="29" width="4" height="4" fill="#D52D7B"/>
<rect x="26" y="21" width="4" height="4" fill="#D52D7B"/>
<rect x="30" y="21" width="4" height="4" fill="#D52D7B"/>
<rect x="34" y="21" width="4" height="4" fill="#D52D7B"/>
<rect x="26" y="17" width="4" height="4" fill="#D52D7B"/>
<rect x="26" y="13" width="4" height="4" fill="#D52D7B"/>
<rect x="30" y="17" width="4" height="4" fill="#D52D7B"/>
<rect x="30" y="13" width="4" height="4" fill="#D52D7B"/>
<rect x="34" y="17" width="4" height="4" fill="#D52D7B"/>
<rect x="30" y="25" width="4" height="4" fill="#D52D7B"/>
<rect x="26" y="9" width="4" height="4" fill="#990E4F"/>
<rect x="30" y="9" width="4" height="4" fill="#990E4F"/>
<rect x="30" y="29" width="4" height="4" fill="#990E4F"/>
<rect x="26" y="33" width="4" height="4" fill="#990E4F"/>
<rect x="22" y="37" width="4" height="4" fill="#990E4F"/>
<rect x="34" y="25" width="4" height="4" fill="#990E4F"/>
<rect x="34" y="13" width="4" height="4" fill="#990E4F"/>
<rect x="38" y="21" width="4" height="4" fill="#990E4F"/>
<rect x="34" y="9" width="4" height="4" fill="#990E4F"/>
<rect x="38" y="13" width="4" height="4" fill="#990E4F"/>
<rect x="38" y="17" width="4" height="4" fill="#990E4F"/>
<rect x="22" y="41" width="4" height="4" fill="black"/>
<rect x="18" y="37" width="4" height="4" fill="black"/>
<rect x="26" y="37" width="4" height="4" fill="black"/>
<rect x="30" y="33" width="4" height="4" fill="black"/>
<rect x="34" y="29" width="4" height="4" fill="black"/>
<rect x="38" y="25" width="4" height="4" fill="black"/>
<rect x="42" y="21" width="4" height="4" fill="black"/>
<rect x="42" y="17" width="4" height="4" fill="black"/>
<rect x="42" y="13" width="4" height="4" fill="black"/>
<rect x="38" y="9" width="4" height="4" fill="black"/>
<rect x="30" y="5" width="4" height="4" fill="black"/>
<rect x="34" y="5" width="4" height="4" fill="black"/>
<rect x="26" y="5" width="4" height="4" fill="black"/>
<rect x="22" y="9" width="4" height="4" fill="black"/>
<rect x="18" y="5" width="4" height="4" fill="black"/>
<rect x="14" y="5" width="4" height="4" fill="black"/>
<rect x="10" y="5" width="4" height="4" fill="black"/>
<rect x="6" y="9" width="4" height="4" fill="black"/>
<rect x="2" y="13" width="4" height="4" fill="black"/>
<rect x="2" y="17" width="4" height="4" fill="black"/>
<rect x="2" y="21" width="4" height="4" fill="black"/>
<rect x="6" y="25" width="4" height="4" fill="black"/>
<rect x="10" y="29" width="4" height="4" fill="black"/>
<rect x="14" y="33" width="4" height="4" fill="black"/>
</svg>
